<?xml version="1.0" ?>
<!DOCTYPE svg  PUBLIC '-//W3C//DTD SVG 1.1//EN'  'http://www.w3.org/Graphics/SVG/1.1/DTD/svg11.dtd'>
<!-- Uploaded to: SVG Repo, www.svgrepo.com, Generator: SVG Repo Mixer Tools -->
<svg width="800px" height="800px" viewBox="0 0 32 32" enable-background="new 0 0 32 32" version="1.1" xml:space="preserve" xmlns="http://www.w3.org/2000/svg" xmlns:xlink="http://www.w3.org/1999/xlink">
<g id="Layer_2"/>
<g id="Layer_3"/>
<g id="Layer_4"/>
<g id="Layer_5"/>
<g id="Layer_6"/>
<g id="Layer_7"/>
<g id="Layer_8"/>
<g id="Layer_9"/>
<g id="Layer_10"/>
<g id="Layer_11"/>
<g id="Layer_12"/>
<g id="Layer_13"/>
<g id="Layer_14"/>
<g id="Layer_15"/>
<g id="Layer_16"/>
<g id="Layer_17"/>
<g id="Layer_18"/>
<g id="Layer_19"/>
<g id="Layer_20"/>
<g id="Layer_21"/>
<g id="Layer_22"/>
<g id="Layer_23"/>
<g id="Layer_24"/>
<g id="Layer_25">
<g>
<path d="M16,30c-5.2979,0-11-1.252-11-4c0-0.5522,0.4478-1,1-1c0.5493,0,0.9946,0.4429,1,0.9907    C7.167,26.5488,10.1621,28,16,28c5.8555,0,8.8511-1.4595,9.0015-2.0146c0-0.5522,0.4468-0.9927,0.9995-0.9927    C26.5532,24.9927,27,25.4478,27,26C27,28.748,21.2979,30,16,30z" fill="#0181B0"/>
</g>
<g>
<path d="M16,23c-5.2979,0-11-1.252-11-4c0-0.5522,0.4478-1,1-1c0.5493,0,0.9946,0.4429,1,0.9907    C7.167,19.5488,10.1621,21,16,21c5.8555,0,8.8511-1.4595,9.0015-2.0146c0-0.5522,0.4468-0.9927,0.9995-0.9927    C26.5532,17.9927,27,18.4478,27,19C27,21.748,21.2979,23,16,23z" fill="#F5D803"/>
</g>
<g>
<path d="M16,16c-5.2979,0-11-1.252-11-4c0-0.5522,0.4478-1,1-1c0.5493,0,0.9946,0.4429,1,0.9907    C7.167,12.5488,10.1621,14,16,14c5.8555,0,8.8511-1.4595,9.0015-2.0146c0-0.5522,0.4468-0.9927,0.9995-0.9927    C26.5532,10.9927,27,11.4478,27,12C27,14.748,21.2979,16,16,16z" fill="#F5D803"/>
</g>
<g>
<path d="M16,9C10.7021,9,5,7.748,5,5c0-0.5522,0.4478-1,1-1c0.5488,0,0.9946,0.4424,1,0.9902    C7.1699,5.5488,10.168,7,16,7c5.8501,0,8.8491-1.46,9.0015-2.0151c0-0.5522,0.4473-0.9927,0.9995-0.9927S27,4.4478,27,5    C27,7.748,21.2979,9,16,9z" fill="#0181B0"/>
</g>
<g>
<path d="M5.999,6.0078C5.4468,6.0078,5,5.5522,5,5c0-2.748,5.7021-4,11-4s11,1.252,11,4c0,0.5522-0.4478,1-1,1    c-0.5488,0-0.9946-0.4424-1-0.9902C24.8301,4.4512,21.832,3,16,3c-5.8501,0-8.8491,1.46-9.0015,2.0151    C6.9985,5.5674,6.5513,6.0078,5.999,6.0078z" fill="#0181B0"/>
</g>
<g>
<path d="M26,27c-0.5522,0-1-0.4478-1-1V5c0-0.5522,0.4478-1,1-1s1,0.4478,1,1v21C27,26.5522,26.5522,27,26,27z" fill="#0181B0"/>
</g>
<g>
<path d="M6,27c-0.5522,0-1-0.4478-1-1V5c0-0.5522,0.4478-1,1-1s1,0.4478,1,1v21C7,26.5522,6.5522,27,6,27z" fill="#0181B0"/>
</g>
</g>
<g id="Layer_26"/>
</svg>
