<svg xmlns="http://www.w3.org/2000/svg" viewBox="0 0 64 64" width="64" height="64">
  <circle cx="32" cy="32" r="30" fill="#f0f6fc" stroke="#9c27b0" stroke-width="2"/>
  <g fill="#9c27b0">
    <circle cx="16" cy="20" r="4"/>
    <circle cx="16" cy="32" r="4"/>
    <circle cx="16" cy="44" r="4"/>
    <circle cx="32" cy="16" r="4"/>
    <circle cx="32" cy="32" r="4"/>
    <circle cx="32" cy="48" r="4"/>
    <circle cx="48" cy="20" r="4"/>
    <circle cx="48" cy="32" r="4"/>
    <circle cx="48" cy="44" r="4"/>
    <line x1="16" y1="20" x2="32" y2="16" stroke="#9c27b0" stroke-width="2"/>
    <line x1="16" y1="20" x2="32" y2="32" stroke="#9c27b0" stroke-width="2"/>
    <line x1="16" y1="32" x2="32" y2="32" stroke="#9c27b0" stroke-width="2"/>
    <line x1="16" y1="44" x2="32" y2="48" stroke="#9c27b0" stroke-width="2"/>
    <line x1="32" y1="16" x2="48" y2="20" stroke="#9c27b0" stroke-width="2"/>
    <line x1="32" y1="32" x2="48" y2="32" stroke="#9c27b0" stroke-width="2"/>
    <line x1="32" y1="48" x2="48" y2="44" stroke="#9c27b0" stroke-width="2"/>
  </g>
</svg>
