<?xml version="1.0" standalone="no"?>
<!DOCTYPE svg PUBLIC "-//W3C//DTD SVG 20010904//EN"
 "http://www.w3.org/TR/2001/REC-SVG-20010904/DTD/svg10.dtd">
<svg version="1.0" xmlns="http://www.w3.org/2000/svg"
 width="1200.000000pt" height="1200.000000pt" viewBox="0 0 1200.000000 1200.000000"
 preserveAspectRatio="xMidYMid meet">

<g transform="translate(0.000000,1200.000000) scale(0.100000,-0.100000)"
fill="#000000" stroke="none">
<path d="M10815 7500 c-3 -5 1 -10 10 -10 9 0 13 5 10 10 -3 6 -8 10 -10 10
-2 0 -7 -4 -10 -10z"/>
<path d="M10925 7500 c-4 -6 5 -10 20 -10 15 0 24 4 20 10 -3 6 -12 10 -20 10
-8 0 -17 -4 -20 -10z"/>
<path d="M11010 7470 c0 -5 5 -10 10 -10 6 0 10 5 10 10 0 6 -4 10 -10 10 -5
0 -10 -4 -10 -10z"/>
<path d="M10705 7454 c-16 -12 -18 -18 -7 -34 8 -14 12 -79 12 -220 0 -171 -2
-200 -15 -200 -8 0 -15 -4 -15 -10 0 -5 5 -10 11 -10 7 0 18 -8 25 -17 13 -17
13 -17 14 0 0 9 -4 17 -10 17 -5 0 -10 4 -10 9 0 6 19 11 43 13 l42 3 5 79 c8
128 46 127 142 -5 28 -38 54 -69 57 -69 4 0 16 -6 26 -14 17 -12 18 -16 5 -32
-14 -17 -13 -18 1 -7 9 7 18 11 21 8 9 -9 71 51 64 63 -3 6 -12 9 -19 6 -8 -2
-22 12 -34 33 -12 21 -33 52 -47 68 -33 38 -33 62 -1 77 50 23 69 121 32 168
-32 40 -49 45 -176 50 -112 4 -126 7 -125 23 2 21 -14 22 -41 1z m246 -114
c11 -6 19 -21 19 -35 0 -36 -35 -55 -102 -55 -53 0 -58 2 -64 25 -3 14 -3 36
0 50 6 23 11 25 67 25 33 0 69 -5 80 -10z"/>
<path d="M11050 7439 c0 -5 5 -7 11 -4 6 4 13 -2 16 -14 3 -12 11 -21 18 -21
8 0 16 -8 18 -17 3 -13 5 -14 6 -3 1 17 -44 70 -59 70 -6 0 -10 -5 -10 -11z"/>
<path d="M10660 7409 c0 -5 5 -7 10 -4 6 3 10 8 10 11 0 2 -4 4 -10 4 -5 0
-10 -5 -10 -11z"/>
<path d="M10627 7370 c-3 -11 -2 -22 3 -25 4 -3 10 4 13 15 3 11 2 22 -3 25
-4 3 -10 -4 -13 -15z"/>
<path d="M11141 7344 c0 -11 3 -14 6 -6 3 7 2 16 -1 19 -3 4 -6 -2 -5 -13z"/>
<path d="M10602 7310 c0 -19 2 -27 5 -17 2 9 2 25 0 35 -3 9 -5 1 -5 -18z"/>
<path d="M11172 7255 c0 -16 2 -22 5 -12 2 9 2 23 0 30 -3 6 -5 -1 -5 -18z"/>
<path d="M10571 7205 c1 -40 1 -40 11 -12 7 21 7 32 -1 40 -8 8 -11 0 -10 -28z"/>
<path d="M11173 7165 c0 -22 2 -30 4 -17 2 12 2 30 0 40 -3 9 -5 -1 -4 -23z"/>
<path d="M10600 7105 c0 -14 4 -25 9 -25 4 0 6 11 3 25 -2 14 -6 25 -8 25 -2
0 -4 -11 -4 -25z"/>
<path d="M11142 7080 c0 -14 2 -19 5 -12 2 6 2 18 0 25 -3 6 -5 1 -5 -13z"/>
<path d="M10626 7062 c-2 -4 -1 -14 5 -22 7 -12 9 -10 9 8 0 23 -5 28 -14 14z"/>
<path d="M10775 6930 c3 -5 8 -10 11 -10 2 0 4 5 4 10 0 6 -5 10 -11 10 -5 0
-7 -4 -4 -10z"/>
<path d="M10980 6930 c0 -5 5 -10 10 -10 6 0 10 5 10 10 0 6 -4 10 -10 10 -5
0 -10 -4 -10 -10z"/>
<path d="M10938 6923 c7 -3 16 -2 19 1 4 3 -2 6 -13 5 -11 0 -14 -3 -6 -6z"/>
<path d="M5290 6844 c-14 -2 -59 -9 -100 -15 -78 -11 -105 -18 -203 -52 -232
-80 -405 -257 -471 -482 -20 -68 -21 -94 -24 -925 -1 -470 0 -865 3 -877 5
-23 6 -23 209 -23 113 0 211 3 220 6 14 6 16 86 16 804 0 784 0 799 21 866 38
123 128 209 251 240 72 19 228 14 288 -8 109 -40 180 -113 206 -212 18 -69 20
-576 2 -594 -9 -9 -84 -12 -278 -12 -194 0 -269 -3 -278 -12 -17 -17 -17 -389
0 -406 9 -9 85 -12 278 -12 146 0 271 -4 277 -8 10 -6 13 -86 15 -323 l3 -314
220 0 220 0 0 850 c-1 621 -4 863 -13 898 -68 278 -242 480 -482 560 -69 23
-93 29 -175 41 -54 8 -179 14 -205 10z"/>
<path d="M1340 6785 c-104 -25 -127 -32 -184 -58 -67 -31 -161 -102 -209 -157
-60 -70 -97 -161 -118 -284 -17 -98 -19 -168 -19 -589 0 -507 7 -607 51 -725
28 -76 90 -164 154 -215 59 -48 181 -113 242 -128 150 -39 190 -41 592 -35
217 4 398 9 402 12 14 9 11 408 -3 422 -9 9 -118 12 -429 12 -451 0 -457 1
-511 55 -50 49 -61 90 -66 231 -3 88 -1 138 7 152 12 22 13 22 444 24 l432 3
0 190 0 190 -432 5 c-310 4 -435 8 -444 17 -8 8 -10 52 -7 150 6 176 23 220
108 272 34 20 44 21 460 21 318 0 429 3 438 12 9 9 12 71 12 219 0 179 -2 208
-16 213 -9 3 -203 6 -432 5 -309 0 -431 -4 -472 -14z"/>
<path d="M2614 6777 c-2 -7 -3 -100 -2 -207 l3 -195 308 -3 308 -2 9 -24 c5
-14 9 -390 9 -888 1 -475 1 -875 1 -890 l0 -28 200 0 c110 0 201 1 202 3 2 1
5 412 8 912 l5 910 300 5 c165 3 301 7 303 8 1 1 1 93 0 205 l-3 202 -823 3
c-663 2 -824 0 -828 -11z"/>
<path d="M6456 6754 c-9 -24 -7 -2217 3 -2232 6 -10 127 -12 622 -10 677 4
656 2 794 70 120 58 255 226 287 357 21 87 38 201 38 256 0 178 -65 338 -188
461 l-74 75 40 43 c48 52 76 104 103 192 29 93 29 343 0 427 -26 73 -74 165
-107 200 -77 83 -215 153 -334 168 -36 5 -315 8 -621 9 -499 0 -557 -2 -563
-16z m1096 -408 c26 -14 55 -42 72 -70 26 -42 29 -55 29 -125 -1 -62 -6 -88
-26 -127 -31 -61 -48 -76 -119 -109 l-56 -25 -268 2 -269 3 -5 218 c-3 120 -2
227 2 238 7 18 20 19 302 19 293 0 296 0 338 -24z m-3 -861 c21 -5 56 -30 96
-69 52 -51 66 -72 81 -121 45 -152 -9 -283 -144 -347 -46 -22 -56 -23 -354
-23 -168 0 -309 3 -313 6 -8 8 -8 547 0 560 8 11 582 6 634 -6z"/>
<path d="M9959 6756 c-3 -3 -38 -10 -79 -16 -203 -30 -422 -157 -546 -315 -21
-27 -45 -56 -52 -63 -24 -27 -91 -179 -112 -257 -12 -44 -26 -96 -31 -115 -12
-41 -14 -76 -23 -350 -4 -113 -12 -236 -18 -275 -13 -87 -66 -201 -115 -252
-86 -89 -245 -153 -426 -170 -27 -3 -50 -10 -52 -17 -8 -24 -11 -366 -4 -378
14 -22 211 -14 314 14 97 26 174 53 230 81 229 114 375 285 460 543 39 115 44
167 54 494 10 347 15 366 104 483 67 87 218 155 364 164 48 4 87 11 93 18 7 8
9 86 8 211 l-3 199 -80 3 c-45 1 -83 1 -86 -2z"/>
</g>
</svg>
