<svg xmlns="http://www.w3.org/2000/svg" xmlns:xlink="http://www.w3.org/1999/xlink" width="64" height="64" viewBox="0 0 32 32"><style><![CDATA[.B{color-interpolation-filters:sRGB}.C{fill-opacity:1}.D{stroke:none}.E{fill:#020204}.F{stroke-linejoin:miter}.G{stroke-opacity:1}.H{stroke-width:1}.I{stroke-linecap:butt}.J{fill:#7c7c7c}]]></style><defs><radialGradient r="14.572" fy="137.661" fx="223.196" cy="137.661" cx="223.196" gradientTransform="matrix(1.0857794,-0.03431182,0.03943781,1.2479887,-154.54194,-26.542647)" id="A" xlink:href="#Ac"><stop offset="0" stop-color="#fefefc"/><stop offset=".757" stop-color="#fefefc"/><stop offset="1" stop-color="#d4d4d4"/></radialGradient><radialGradient r="14.572" fy="137.661" fx="223.196" cy="137.661" cx="223.196" gradientTransform="matrix(0.81524244,-0.03431182,0.02961133,1.2479887,-129.43743,-26.542647)" id="B" xlink:href="#Ac"><stop offset="0" stop-color="#fefefc"/><stop offset=".757" stop-color="#fefefc"/><stop offset="1" stop-color="#d4d4d4"/></radialGradient><linearGradient id="C" xlink:href="#Ac"><stop offset="0" stop-color="#3e2a06"/><stop offset="1" stop-color="#ad780a"/></linearGradient><linearGradient xlink:href="#C" id="D" x1="447.113" y1="364.09" x2="489.181" y2="300.828"/><linearGradient xlink:href="#C" id="E" x1="442.039" y1="371.544" x2="490.122" y2="293.585"/><clipPath id="F"><path d="M137.577 281.02c1.6-.663 3.398-.784 5.1-.47s3.31 1.05 4.743 2.022c2.864 1.946 4.988 4.778 7.023 7.58 4.672 6.434 9.17 13.002 13.245 19.83 3.306 5.538 6.344 11.257 10.164 16.453 2.494 3.392 5.307 6.54 7.813 9.922s4.728 7.056 5.84 11.117c1.444 5.277.885 11.093-1.627 15.953-1.767 3.42-4.476 6.352-7.772 8.34s-7.17 3.014-11.016 2.87c-6.114-.23-11.7-3.285-17.384-5.55-11.58-4.612-24.16-6.06-36.097-9.652-3.67-1.104-7.276-2.41-10.97-3.426-1.64-.45-3.31-.848-4.86-1.55s-3-1.75-3.862-3.217c-.666-1.134-.948-2.47-.93-3.786s.326-2.615.774-3.852c.896-2.474 2.343-4.714 3.32-7.157 1.595-3.99 1.882-8.388 1.882-12.69v-11.76c0-2.196.01-4.405.43-6.56.42-2.155 1.254-4.264 2.74-5.83 1.564-1.65 3.72-2.63 5.9-3.3 2.18-.67 4.44-1.05 6.544-1.9z"/></clipPath><linearGradient id="Ac"><stop offset="0" stop-color="#fff"/><stop offset="1" stop-color="#fff" stop-opacity="0"/></linearGradient></defs><g transform="translate(-1.172 -1.172) scale(0.1172)"><circle r="128" cy="136.5" cx="136.5" fill="#fff"/><path d="M136.5 16.5c-66.274 0-120 53.726-120 120s53.726 120 120 120 120-53.726 120-120-53.726-120-120-120zm0 210c-49.706 0-90-40.294-90-90s40.294-90 90-90 90 40.294 90 90-40.294 90-90 90z" fill="#333" fill-rule="evenodd"/><g transform="matrix(0.13333,0,0,0.13333,118.5,118.5)"><path d="M137.577 281.02c1.6-.663 3.398-.784 5.1-.47s3.31 1.05 4.743 2.022c2.864 1.946 4.988 4.778 7.023 7.58 4.672 6.434 9.17 13.002 13.245 19.83 3.306 5.538 6.344 11.257 10.164 16.453 2.494 3.392 5.307 6.54 7.813 9.922s4.728 7.056 5.84 11.117c1.444 5.277.885 11.093-1.627 15.953-1.767 3.42-4.476 6.352-7.772 8.34s-7.17 3.014-11.016 2.87c-6.114-.23-11.7-3.285-17.384-5.55-11.58-4.612-24.16-6.06-36.097-9.652-3.67-1.104-7.276-2.41-10.97-3.426-1.64-.45-3.31-.848-4.86-1.55s-3-1.75-3.862-3.217c-.666-1.134-.948-2.47-.93-3.786s.326-2.615.774-3.852c.896-2.474 2.343-4.714 3.32-7.157 1.595-3.99 1.882-8.388 1.882-12.69v-11.76c0-2.196.01-4.405.43-6.56.42-2.155 1.254-4.264 2.74-5.83 1.564-1.65 3.72-2.63 5.9-3.3 2.18-.67 4.44-1.05 6.544-1.9z" class="E D"/><path d="M137.577 281.02c1.6-.663 3.398-.784 5.1-.47s3.31 1.05 4.743 2.022c2.864 1.946 4.988 4.778 7.023 7.58 4.672 6.434 9.17 13.002 13.245 19.83 3.306 5.538 6.344 11.257 10.164 16.453 2.494 3.392 5.307 6.54 7.813 9.922s4.728 7.056 5.84 11.117c1.444 5.277.885 11.093-1.627 15.953-1.767 3.42-4.476 6.352-7.772 8.34s-7.17 3.014-11.016 2.87c-6.114-.23-11.7-3.285-17.384-5.55-11.58-4.612-24.16-6.06-36.097-9.652-3.67-1.104-7.276-2.41-10.97-3.426-1.64-.45-3.31-.848-4.86-1.55s-3-1.75-3.862-3.217c-.666-1.134-.948-2.47-.93-3.786s.326-2.615.774-3.852c.896-2.474 2.343-4.714 3.32-7.157 1.595-3.99 1.882-8.388 1.882-12.69v-11.76c0-2.196.01-4.405.43-6.56.42-2.155 1.254-4.264 2.74-5.83 1.564-1.65 3.72-2.63 5.9-3.3 2.18-.67 4.44-1.05 6.544-1.9z" class="E D"/><path d="M137.577 281.02c1.6-.663 3.398-.784 5.1-.47s3.31 1.05 4.743 2.022c2.864 1.946 4.988 4.778 7.023 7.58 4.672 6.434 9.17 13.002 13.245 19.83 3.306 5.538 6.344 11.257 10.164 16.453 2.494 3.392 5.307 6.54 7.813 9.922s4.728 7.056 5.84 11.117c1.444 5.277.885 11.093-1.627 15.953-1.767 3.42-4.476 6.352-7.772 8.34s-7.17 3.014-11.016 2.87c-6.114-.23-11.7-3.285-17.384-5.55-11.58-4.612-24.16-6.06-36.097-9.652-3.67-1.104-7.276-2.41-10.97-3.426-1.64-.45-3.31-.848-4.86-1.55s-3-1.75-3.862-3.217c-.666-1.134-.948-2.47-.93-3.786s.326-2.615.774-3.852c.896-2.474 2.343-4.714 3.32-7.157 1.595-3.99 1.882-8.388 1.882-12.69v-11.76c0-2.196.01-4.405.43-6.56.42-2.155 1.254-4.264 2.74-5.83 1.564-1.65 3.72-2.63 5.9-3.3 2.18-.67 4.44-1.05 6.544-1.9z" class="E D"/><path d="M137.577 281.02c1.6-.663 3.398-.784 5.1-.47s3.31 1.05 4.743 2.022c2.864 1.946 4.988 4.778 7.023 7.58 4.672 6.434 9.17 13.002 13.245 19.83 3.306 5.538 6.344 11.257 10.164 16.453 2.494 3.392 5.307 6.54 7.813 9.922s4.728 7.056 5.84 11.117c1.444 5.277.885 11.093-1.627 15.953-1.767 3.42-4.476 6.352-7.772 8.34s-7.17 3.014-11.016 2.87c-6.114-.23-11.7-3.285-17.384-5.55-11.58-4.612-24.16-6.06-36.097-9.652-3.67-1.104-7.276-2.41-10.97-3.426-1.64-.45-3.31-.848-4.86-1.55s-3-1.75-3.862-3.217c-.666-1.134-.948-2.47-.93-3.786s.326-2.615.774-3.852c.896-2.474 2.343-4.714 3.32-7.157 1.595-3.99 1.882-8.388 1.882-12.69v-11.76c0-2.196.01-4.405.43-6.56.42-2.155 1.254-4.264 2.74-5.83 1.564-1.65 3.72-2.63 5.9-3.3 2.18-.67 4.44-1.05 6.544-1.9z" class="E D"/><path d="M137.577 281.02c1.6-.663 3.398-.784 5.1-.47s3.31 1.05 4.743 2.022c2.864 1.946 4.988 4.778 7.023 7.58 4.672 6.434 9.17 13.002 13.245 19.83 3.306 5.538 6.344 11.257 10.164 16.453 2.494 3.392 5.307 6.54 7.813 9.922s4.728 7.056 5.84 11.117c1.444 5.277.885 11.093-1.627 15.953-1.767 3.42-4.476 6.352-7.772 8.34s-7.17 3.014-11.016 2.87c-6.114-.23-11.7-3.285-17.384-5.55-11.58-4.612-24.16-6.06-36.097-9.652-3.67-1.104-7.276-2.41-10.97-3.426-1.64-.45-3.31-.848-4.86-1.55s-3-1.75-3.862-3.217c-.666-1.134-.948-2.47-.93-3.786s.326-2.615.774-3.852c.896-2.474 2.343-4.714 3.32-7.157 1.595-3.99 1.882-8.388 1.882-12.69v-11.76c0-2.196.01-4.405.43-6.56.42-2.155 1.254-4.264 2.74-5.83 1.564-1.65 3.72-2.63 5.9-3.3 2.18-.67 4.44-1.05 6.544-1.9z" class="E D"/><path d="M137.577 281.02c1.6-.663 3.398-.784 5.1-.47s3.31 1.05 4.743 2.022c2.864 1.946 4.988 4.778 7.023 7.58 4.672 6.434 9.17 13.002 13.245 19.83 3.306 5.538 6.344 11.257 10.164 16.453 2.494 3.392 5.307 6.54 7.813 9.922s4.728 7.056 5.84 11.117c1.444 5.277.885 11.093-1.627 15.953-1.767 3.42-4.476 6.352-7.772 8.34s-7.17 3.014-11.016 2.87c-6.114-.23-11.7-3.285-17.384-5.55-11.58-4.612-24.16-6.06-36.097-9.652-3.67-1.104-7.276-2.41-10.97-3.426-1.64-.45-3.31-.848-4.86-1.55s-3-1.75-3.862-3.217c-.666-1.134-.948-2.47-.93-3.786s.326-2.615.774-3.852c.896-2.474 2.343-4.714 3.32-7.157 1.595-3.99 1.882-8.388 1.882-12.69v-11.76c0-2.196.01-4.405.43-6.56.42-2.155 1.254-4.264 2.74-5.83 1.564-1.65 3.72-2.63 5.9-3.3 2.18-.67 4.44-1.05 6.544-1.9z" class="E D"/><path d="M137.577 281.02c1.6-.663 3.398-.784 5.1-.47s3.31 1.05 4.743 2.022c2.864 1.946 4.988 4.778 7.023 7.58 4.672 6.434 9.17 13.002 13.245 19.83 3.306 5.538 6.344 11.257 10.164 16.453 2.494 3.392 5.307 6.54 7.813 9.922s4.728 7.056 5.84 11.117c1.444 5.277.885 11.093-1.627 15.953-1.767 3.42-4.476 6.352-7.772 8.34s-7.17 3.014-11.016 2.87c-6.114-.23-11.7-3.285-17.384-5.55-11.58-4.612-24.16-6.06-36.097-9.652-3.67-1.104-7.276-2.41-10.97-3.426-1.64-.45-3.31-.848-4.86-1.55s-3-1.75-3.862-3.217c-.666-1.134-.948-2.47-.93-3.786s.326-2.615.774-3.852c.896-2.474 2.343-4.714 3.32-7.157 1.595-3.99 1.882-8.388 1.882-12.69v-11.76c0-2.196.01-4.405.43-6.56.42-2.155 1.254-4.264 2.74-5.83 1.564-1.65 3.72-2.63 5.9-3.3 2.18-.67 4.44-1.05 6.544-1.9z" class="E D"/><path d="M137.577 281.02c1.6-.663 3.398-.784 5.1-.47s3.31 1.05 4.743 2.022c2.864 1.946 4.988 4.778 7.023 7.58 4.672 6.434 9.17 13.002 13.245 19.83 3.306 5.538 6.344 11.257 10.164 16.453 2.494 3.392 5.307 6.54 7.813 9.922s4.728 7.056 5.84 11.117c1.444 5.277.885 11.093-1.627 15.953-1.767 3.42-4.476 6.352-7.772 8.34s-7.17 3.014-11.016 2.87c-6.114-.23-11.7-3.285-17.384-5.55-11.58-4.612-24.16-6.06-36.097-9.652-3.67-1.104-7.276-2.41-10.97-3.426-1.64-.45-3.31-.848-4.86-1.55s-3-1.75-3.862-3.217c-.666-1.134-.948-2.47-.93-3.786s.326-2.615.774-3.852c.896-2.474 2.343-4.714 3.32-7.157 1.595-3.99 1.882-8.388 1.882-12.69v-11.76c0-2.196.01-4.405.43-6.56.42-2.155 1.254-4.264 2.74-5.83 1.564-1.65 3.72-2.63 5.9-3.3 2.18-.67 4.44-1.05 6.544-1.9z" class="E D"/><path d="M137.577 281.02c1.6-.663 3.398-.784 5.1-.47s3.31 1.05 4.743 2.022c2.864 1.946 4.988 4.778 7.023 7.58 4.672 6.434 9.17 13.002 13.245 19.83 3.306 5.538 6.344 11.257 10.164 16.453 2.494 3.392 5.307 6.54 7.813 9.922s4.728 7.056 5.84 11.117c1.444 5.277.885 11.093-1.627 15.953-1.767 3.42-4.476 6.352-7.772 8.34s-7.17 3.014-11.016 2.87c-6.114-.23-11.7-3.285-17.384-5.55-11.58-4.612-24.16-6.06-36.097-9.652-3.67-1.104-7.276-2.41-10.97-3.426-1.64-.45-3.31-.848-4.86-1.55s-3-1.75-3.862-3.217c-.666-1.134-.948-2.47-.93-3.786s.326-2.615.774-3.852c.896-2.474 2.343-4.714 3.32-7.157 1.595-3.99 1.882-8.388 1.882-12.69v-11.76c0-2.196.01-4.405.43-6.56.42-2.155 1.254-4.264 2.74-5.83 1.564-1.65 3.72-2.63 5.9-3.3 2.18-.67 4.44-1.05 6.544-1.9z" class="E D"/><path d="M137.577 281.02c1.6-.663 3.398-.784 5.1-.47s3.31 1.05 4.743 2.022c2.864 1.946 4.988 4.778 7.023 7.58 4.672 6.434 9.17 13.002 13.245 19.83 3.306 5.538 6.344 11.257 10.164 16.453 2.494 3.392 5.307 6.54 7.813 9.922s4.728 7.056 5.84 11.117c1.444 5.277.885 11.093-1.627 15.953-1.767 3.42-4.476 6.352-7.772 8.34s-7.17 3.014-11.016 2.87c-6.114-.23-11.7-3.285-17.384-5.55-11.58-4.612-24.16-6.06-36.097-9.652-3.67-1.104-7.276-2.41-10.97-3.426-1.64-.45-3.31-.848-4.86-1.55s-3-1.75-3.862-3.217c-.666-1.134-.948-2.47-.93-3.786s.326-2.615.774-3.852c.896-2.474 2.343-4.714 3.32-7.157 1.595-3.99 1.882-8.388 1.882-12.69v-11.76c0-2.196.01-4.405.43-6.56.42-2.155 1.254-4.264 2.74-5.83 1.564-1.65 3.72-2.63 5.9-3.3 2.18-.67 4.44-1.05 6.544-1.9z" class="E D"/><path d="M137.577 281.02c1.6-.663 3.398-.784 5.1-.47s3.31 1.05 4.743 2.022c2.864 1.946 4.988 4.778 7.023 7.58 4.672 6.434 9.17 13.002 13.245 19.83 3.306 5.538 6.344 11.257 10.164 16.453 2.494 3.392 5.307 6.54 7.813 9.922s4.728 7.056 5.84 11.117c1.444 5.277.885 11.093-1.627 15.953-1.767 3.42-4.476 6.352-7.772 8.34s-7.17 3.014-11.016 2.87c-6.114-.23-11.7-3.285-17.384-5.55-11.58-4.612-24.16-6.06-36.097-9.652-3.67-1.104-7.276-2.41-10.97-3.426-1.64-.45-3.31-.848-4.86-1.55s-3-1.75-3.862-3.217c-.666-1.134-.948-2.47-.93-3.786s.326-2.615.774-3.852c.896-2.474 2.343-4.714 3.32-7.157 1.595-3.99 1.882-8.388 1.882-12.69v-11.76c0-2.196.01-4.405.43-6.56.42-2.155 1.254-4.264 2.74-5.83 1.564-1.65 3.72-2.63 5.9-3.3 2.18-.67 4.44-1.05 6.544-1.9z" class="E D"/><path d="M137.577 281.02c1.6-.663 3.398-.784 5.1-.47s3.31 1.05 4.743 2.022c2.864 1.946 4.988 4.778 7.023 7.58 4.672 6.434 9.17 13.002 13.245 19.83 3.306 5.538 6.344 11.257 10.164 16.453 2.494 3.392 5.307 6.54 7.813 9.922s4.728 7.056 5.84 11.117c1.444 5.277.885 11.093-1.627 15.953-1.767 3.42-4.476 6.352-7.772 8.34s-7.17 3.014-11.016 2.87c-6.114-.23-11.7-3.285-17.384-5.55-11.58-4.612-24.16-6.06-36.097-9.652-3.67-1.104-7.276-2.41-10.97-3.426-1.64-.45-3.31-.848-4.86-1.55s-3-1.75-3.862-3.217c-.666-1.134-.948-2.47-.93-3.786s.326-2.615.774-3.852c.896-2.474 2.343-4.714 3.32-7.157 1.595-3.99 1.882-8.388 1.882-12.69v-11.76c0-2.196.01-4.405.43-6.56.42-2.155 1.254-4.264 2.74-5.83 1.564-1.65 3.72-2.63 5.9-3.3 2.18-.67 4.44-1.05 6.544-1.9z" class="E D"/><path d="M137.577 281.02c1.6-.663 3.398-.784 5.1-.47s3.31 1.05 4.743 2.022c2.864 1.946 4.988 4.778 7.023 7.58 4.672 6.434 9.17 13.002 13.245 19.83 3.306 5.538 6.344 11.257 10.164 16.453 2.494 3.392 5.307 6.54 7.813 9.922s4.728 7.056 5.84 11.117c1.444 5.277.885 11.093-1.627 15.953-1.767 3.42-4.476 6.352-7.772 8.34s-7.17 3.014-11.016 2.87c-6.114-.23-11.7-3.285-17.384-5.55-11.58-4.612-24.16-6.06-36.097-9.652-3.67-1.104-7.276-2.41-10.97-3.426-1.64-.45-3.31-.848-4.86-1.55s-3-1.75-3.862-3.217c-.666-1.134-.948-2.47-.93-3.786s.326-2.615.774-3.852c.896-2.474 2.343-4.714 3.32-7.157 1.595-3.99 1.882-8.388 1.882-12.69v-11.76c0-2.196.01-4.405.43-6.56.42-2.155 1.254-4.264 2.74-5.83 1.564-1.65 3.72-2.63 5.9-3.3 2.18-.67 4.44-1.05 6.544-1.9z" class="E D"/></g></g></svg>
