<svg xmlns="http://www.w3.org/2000/svg" width="64" height="64" viewBox="0 0 64 64">
 <path fill="#ff8c00" d="M32,4C16.536,4,4,16.536,4,32s12.536,28,28,28s28-12.536,28-28S47.464,4,32,4z M32,52c-11.046,0-20-8.954-20-20s8.954-20,20-20s20,8.954,20,20S43.046,52,32,52z"/>
 <path fill="#ff8c00" d="M32,20c-6.627,0-12,5.373-12,12s5.373,12,12,12s12-5.373,12-12S38.627,20,32,20z M32,36c-2.209,0-4-1.791-4-4s1.791-4,4-4s4,1.791,4,4S34.209,36,32,36z"/>
 <path fill="#ff8c00" d="M32,12c-11.046,0-20,8.954-20,20h8c0-6.627,5.373-12,12-12V12z"/>
 <path fill="#ff8c00" d="M44,32c0,6.627-5.373,12-12,12v8c11.046,0,20-8.954,20-20H44z"/>
</svg>
