<?xml version="1.0" encoding="utf-8" standalone="no"?>
<!DOCTYPE svg PUBLIC "-//W3C//DTD SVG 1.1//EN"
 "http://www.w3.org/Graphics/SVG/1.1/DTD/svg11.dtd">
<!-- Created with matplotlib (https://matplotlib.org/) -->
<svg height="151.077966pt" version="1.1" viewBox="0 0 158.4 151.077966" width="158.4pt" xmlns="http://www.w3.org/2000/svg" xmlns:xlink="http://www.w3.org/1999/xlink">
<metadata>
 <rdf:RDF xmlns:cc="http://creativecommons.org/ns#" xmlns:dc="http://purl.org/dc/elements/1.1/" xmlns:rdf="http://www.w3.org/1999/02/22-rdf-syntax-ns#">
  <cc:Work>
   <dc:type rdf:resource="http://purl.org/dc/dcmitype/StillImage"/>
   <dc:date>2020-09-07T14:13:57.855925</dc:date>
   <dc:format>image/svg+xml</dc:format>
   <dc:creator>
    <cc:Agent>
     <dc:title>Matplotlib v3.3.1, https://matplotlib.org/</dc:title>
    </cc:Agent>
   </dc:creator>
  </cc:Work>
 </rdf:RDF>
</metadata>
<defs>
 <style type="text/css">*{stroke-linecap:butt;stroke-linejoin:round;}</style>
</defs>
<g id="figure_1">
 <g id="patch_1">
  <path d="M 0 151.077966 
L 158.4 151.077966 
L 158.4 0 
L 0 0 
z
" style="fill:none;"/>
 </g>
 <g id="axes_1">
  <g id="patch_2">
   <path clip-path="url(#p05aec58a04)" d="M 79.2 141.437288 
C 96.676435 141.437288 113.439433 134.493827 125.797138 122.136121 
C 138.154844 109.778416 145.098305 93.015418 145.098305 75.538983 
C 145.098305 58.062548 138.154844 41.29955 125.797138 28.941845 
C 113.439433 16.584139 96.676435 9.640678 79.2 9.640678 
C 61.723565 9.640678 44.960567 16.584139 32.602862 28.941845 
C 20.245156 41.29955 13.301695 58.062548 13.301695 75.538983 
C 13.301695 93.015418 20.245156 109.778416 32.602862 122.136121 
C 44.960567 134.493827 61.723565 141.437288 79.2 141.437288 
z
" style="fill:#ffffff;stroke:#ffffff;stroke-linejoin:miter;"/>
  </g>
  <g id="PolyCollection_1">
   <path clip-path="url(#p31243c7135)" d="M -6.223729 92.147352 
L -6.223729 164.623729 
L -3.783051 164.623729 
L -1.342373 164.623729 
L 1.098305 164.623729 
L 3.538983 164.623729 
L 5.979661 164.623729 
L 8.420339 164.623729 
L 10.861017 164.623729 
L 13.301695 164.623729 
L 15.742373 164.623729 
L 18.183051 164.623729 
L 20.623729 164.623729 
L 23.064407 164.623729 
L 25.505085 164.623729 
L 27.945763 164.623729 
L 30.386441 164.623729 
L 32.827119 164.623729 
L 35.267797 164.623729 
L 37.708475 164.623729 
L 40.149153 164.623729 
L 42.589831 164.623729 
L 45.030508 164.623729 
L 47.471186 164.623729 
L 49.911864 164.623729 
L 52.352542 164.623729 
L 54.79322 164.623729 
L 57.233898 164.623729 
L 59.674576 164.623729 
L 62.115254 164.623729 
L 64.555932 164.623729 
L 66.99661 164.623729 
L 69.437288 164.623729 
L 71.877966 164.623729 
L 74.318644 164.623729 
L 76.759322 164.623729 
L 79.2 164.623729 
L 81.640678 164.623729 
L 84.081356 164.623729 
L 86.522034 164.623729 
L 88.962712 164.623729 
L 91.40339 164.623729 
L 93.844068 164.623729 
L 96.284746 164.623729 
L 98.725424 164.623729 
L 101.166102 164.623729 
L 103.60678 164.623729 
L 106.047458 164.623729 
L 108.488136 164.623729 
L 110.928814 164.623729 
L 113.369492 164.623729 
L 115.810169 164.623729 
L 118.250847 164.623729 
L 120.691525 164.623729 
L 123.132203 164.623729 
L 125.572881 164.623729 
L 128.013559 164.623729 
L 130.454237 164.623729 
L 132.894915 164.623729 
L 135.335593 164.623729 
L 137.776271 164.623729 
L 140.216949 164.623729 
L 142.657627 164.623729 
L 145.098305 164.623729 
L 147.538983 164.623729 
L 149.979661 164.623729 
L 152.420339 164.623729 
L 154.861017 164.623729 
L 157.301695 164.623729 
L 159.742373 164.623729 
L 162.183051 164.623729 
L 164.623729 164.623729 
L 164.623729 92.147352 
L 164.623729 92.147352 
L 162.183051 92.147352 
L 159.742373 92.147352 
L 157.301695 92.147352 
L 154.861017 92.147352 
L 152.420339 92.147352 
L 149.979661 92.147352 
L 147.538983 92.147352 
L 145.098305 92.147352 
L 142.657627 92.147352 
L 140.216949 92.147352 
L 137.776271 92.147352 
L 135.335593 92.147352 
L 132.894915 92.147352 
L 130.454237 92.147352 
L 128.013559 92.147352 
L 125.572881 92.147352 
L 123.132203 92.147352 
L 120.691525 92.147352 
L 118.250847 92.147352 
L 115.810169 92.147352 
L 113.369492 92.147352 
L 110.928814 92.147352 
L 108.488136 92.147352 
L 106.047458 92.147352 
L 103.60678 92.147352 
L 101.166102 92.147352 
L 98.725424 92.147352 
L 96.284746 92.147352 
L 93.844068 92.147352 
L 91.40339 92.147352 
L 88.962712 92.147352 
L 86.522034 92.147352 
L 84.081356 92.147352 
L 81.640678 92.147352 
L 79.2 92.147352 
L 76.759322 92.147352 
L 74.318644 92.147352 
L 71.877966 92.147352 
L 69.437288 92.147352 
L 66.99661 92.147352 
L 64.555932 92.147352 
L 62.115254 92.147352 
L 59.674576 92.147352 
L 57.233898 92.147352 
L 54.79322 92.147352 
L 52.352542 92.147352 
L 49.911864 92.147352 
L 47.471186 92.147352 
L 45.030508 92.147352 
L 42.589831 92.147352 
L 40.149153 92.147352 
L 37.708475 92.147352 
L 35.267797 92.147352 
L 32.827119 92.147352 
L 30.386441 92.147352 
L 27.945763 92.147352 
L 25.505085 92.147352 
L 23.064407 92.147352 
L 20.623729 92.147352 
L 18.183051 92.147352 
L 15.742373 92.147352 
L 13.301695 92.147352 
L 10.861017 92.147352 
L 8.420339 92.147352 
L 5.979661 92.147352 
L 3.538983 92.147352 
L 1.098305 92.147352 
L -1.342373 92.147352 
L -3.783051 92.147352 
z
" style="fill:#afdad2;"/>
  </g>
  <g id="patch_3">
   <path clip-path="url(#p31243c7135)" d="M -6.223729 165.844068 
L 8.420339 165.844068 
L 8.420339 92.147352 
L -6.223729 92.147352 
z
" style="fill:#444876;stroke:#ffffff;stroke-linejoin:miter;"/>
  </g>
  <g id="patch_4">
   <path clip-path="url(#p31243c7135)" d="M 8.420339 165.844068 
L 23.064407 165.844068 
L 23.064407 92.147352 
L 8.420339 92.147352 
z
" style="fill:#444876;stroke:#ffffff;stroke-linejoin:miter;"/>
  </g>
  <g id="patch_5">
   <path clip-path="url(#p31243c7135)" d="M 23.064407 165.844068 
L 37.708475 165.844068 
L 37.708475 92.147352 
L 23.064407 92.147352 
z
" style="fill:#444876;stroke:#ffffff;stroke-linejoin:miter;"/>
  </g>
  <g id="patch_6">
   <path clip-path="url(#p31243c7135)" d="M 37.708475 165.844068 
L 52.352542 165.844068 
L 52.352542 92.147352 
L 37.708475 92.147352 
z
" style="fill:#444876;stroke:#ffffff;stroke-linejoin:miter;"/>
  </g>
  <g id="patch_7">
   <path clip-path="url(#p31243c7135)" d="M 52.352542 165.844068 
L 66.99661 165.844068 
L 66.99661 92.147352 
L 52.352542 92.147352 
z
" style="fill:#444876;stroke:#ffffff;stroke-linejoin:miter;"/>
  </g>
  <g id="patch_8">
   <path clip-path="url(#p31243c7135)" d="M 66.99661 165.844068 
L 81.640678 165.844068 
L 81.640678 92.147352 
L 66.99661 92.147352 
z
" style="fill:#444876;stroke:#ffffff;stroke-linejoin:miter;"/>
  </g>
  <g id="patch_9">
   <path clip-path="url(#p31243c7135)" d="M 81.640678 165.844068 
L 96.284746 165.844068 
L 96.284746 92.147352 
L 81.640678 92.147352 
z
" style="fill:#444876;stroke:#ffffff;stroke-linejoin:miter;"/>
  </g>
  <g id="patch_10">
   <path clip-path="url(#p31243c7135)" d="M 96.284746 165.844068 
L 110.928814 165.844068 
L 110.928814 92.147352 
L 96.284746 92.147352 
z
" style="fill:#444876;stroke:#ffffff;stroke-linejoin:miter;"/>
  </g>
  <g id="patch_11">
   <path clip-path="url(#p31243c7135)" d="M 96.284746 165.844068 
L 110.928814 165.844068 
L 110.928814 112.865673 
L 96.284746 112.865673 
z
" style="fill:#444876;stroke:#ffffff;stroke-linejoin:miter;"/>
  </g>
  <g id="patch_12">
   <path clip-path="url(#p31243c7135)" d="M 110.928814 165.844068 
L 125.572881 165.844068 
L 125.572881 116.128858 
L 110.928814 116.128858 
z
" style="fill:#444876;stroke:#ffffff;stroke-linejoin:miter;"/>
  </g>
  <g id="PathCollection_1">
   <path clip-path="url(#p0d18b7291c)" d="M 79.2 76.657017 
C 79.496506 76.657017 79.780908 76.539214 79.990569 76.329552 
C 80.200231 76.119891 80.318034 75.835489 80.318034 75.538983 
C 80.318034 75.242477 80.200231 74.958075 79.990569 74.748414 
C 79.780908 74.538752 79.496506 74.420949 79.2 74.420949 
C 78.903494 74.420949 78.619092 74.538752 78.409431 74.748414 
C 78.199769 74.958075 78.081966 75.242477 78.081966 75.538983 
C 78.081966 75.835489 78.199769 76.119891 78.409431 76.329552 
C 78.619092 76.539214 78.903494 76.657017 79.2 76.657017 
z
" style="fill:#afdad2;stroke:#ffffff;stroke-width:0.25;"/>
   <path clip-path="url(#p0d18b7291c)" d="M 78.552246 70.932772 
C 79.14284 70.932772 79.709325 70.698126 80.126939 70.280513 
C 80.544552 69.8629 80.779198 69.296415 80.779198 68.70582 
C 80.779198 68.115226 80.544552 67.548741 80.126939 67.131128 
C 79.709325 66.713514 79.14284 66.478869 78.552246 66.478869 
C 77.961651 66.478869 77.395167 66.713514 76.977553 67.131128 
C 76.55994 67.548741 76.325294 68.115226 76.325294 68.70582 
C 76.325294 69.296415 76.55994 69.8629 76.977553 70.280513 
C 77.395167 70.698126 77.961651 70.932772 78.552246 70.932772 
z
" style="fill:#afdad2;stroke:#ffffff;stroke-width:0.25;"/>
   <path clip-path="url(#p0d18b7291c)" d="M 73.155471 61.98586 
C 73.484456 61.98586 73.80001 61.855153 74.032638 61.622526 
C 74.265265 61.389899 74.395972 61.074344 74.395972 60.74536 
C 74.395972 60.416375 74.265265 60.100821 74.032638 59.868193 
C 73.80001 59.635566 73.484456 59.504859 73.155471 59.504859 
C 72.826487 59.504859 72.510932 59.635566 72.278305 59.868193 
C 72.045678 60.100821 71.914971 60.416375 71.914971 60.74536 
C 71.914971 61.074344 72.045678 61.389899 72.278305 61.622526 
C 72.510932 61.855153 72.826487 61.98586 73.155471 61.98586 
z
" style="fill:#afdad2;stroke:#ffffff;stroke-width:0.25;"/>
  </g>
 </g>
</g>
<defs>
 <clipPath id="p05aec58a04">
  <rect height="131.79661" width="131.79661" x="13.301695" y="9.640678"/>
 </clipPath>
 <clipPath id="p31243c7135">
  <rect height="73.696716" width="170.847458" x="-6.223729" y="92.147352"/>
 </clipPath>
 <clipPath id="p0d18b7291c">
  <rect height="131.79661" width="131.79661" x="13.301695" y="9.640678"/>
 </clipPath>
</defs>
</svg>
